<mxfile host="65bd71144e">
    <diagram id="DI6zT22FTgyFtFcUrmey" name="Page-1">
        <mxGraphModel dx="835" dy="954" grid="1" gridSize="10" guides="1" tooltips="1" connect="1" arrows="1" fold="1" page="1" pageScale="1" pageWidth="850" pageHeight="1100" math="0" shadow="0">
            <root>
                <mxCell id="0"/>
                <mxCell id="1" parent="0"/>
                <mxCell id="2" value="OpenShift Cluster" style="swimlane;fillColor=#FF0000;fontColor=#ffffff;strokeColor=#A50040;" vertex="1" parent="1">
                    <mxGeometry x="40" y="40" width="700" height="560" as="geometry"/>
                </mxCell>
                <mxCell id="3" value="openshift-operators" style="swimlane;" vertex="1" parent="2">
                    <mxGeometry x="20" y="40" width="450" height="100" as="geometry"/>
                </mxCell>
                <mxCell id="4" value="EventStreams-operator" style="rounded=0;whiteSpace=wrap;html=1;fillColor=#0050ef;fontColor=#ffffff;strokeColor=#001DBC;" vertex="1" parent="3">
                    <mxGeometry x="20" y="40" width="120" height="30" as="geometry"/>
                </mxCell>
                <mxCell id="7" value="MQ-operator" style="rounded=0;whiteSpace=wrap;html=1;fillColor=#0050ef;fontColor=#ffffff;strokeColor=#001DBC;" vertex="1" parent="3">
                    <mxGeometry x="180" y="40" width="120" height="30" as="geometry"/>
                </mxCell>
                <mxCell id="8" value="rt-inventory-dev" style="swimlane;" vertex="1" parent="2">
                    <mxGeometry x="20" y="180" width="470" height="330" as="geometry"/>
                </mxCell>
                <mxCell id="9" value="EventStreams-kafka-brokers" style="rounded=0;whiteSpace=wrap;html=1;fillColor=#0050ef;fontColor=#ffffff;strokeColor=#001DBC;" vertex="1" parent="8">
                    <mxGeometry x="20" y="40" width="120" height="30" as="geometry"/>
                </mxCell>
                <mxCell id="11" value="EventStreams-zookeepers" style="rounded=0;whiteSpace=wrap;html=1;fillColor=#0050ef;fontColor=#ffffff;strokeColor=#001DBC;" vertex="1" parent="8">
                    <mxGeometry x="20" y="85" width="120" height="30" as="geometry"/>
                </mxCell>
                <mxCell id="12" value="&lt;p class=&quot;p1&quot; style=&quot;margin: 0px; font-stretch: normal; font-size: 11px; line-height: normal; font-family: menlo;&quot;&gt;&lt;span class=&quot;s1&quot;&gt;item-inventory&lt;/span&gt;&lt;/p&gt;" style="rounded=0;whiteSpace=wrap;html=1;fillColor=#60a917;fontColor=#FFFFFF;strokeColor=#2D7600;" vertex="1" parent="8">
                    <mxGeometry x="220" y="230" width="120" height="30" as="geometry"/>
                </mxCell>
                <mxCell id="13" value="&lt;p class=&quot;p1&quot; style=&quot;margin: 0px ; font-stretch: normal ; font-size: 11px ; line-height: normal ; font-family: &amp;#34;menlo&amp;#34;&quot;&gt;&lt;span class=&quot;s1&quot;&gt;store-inventory&lt;/span&gt;&lt;/p&gt;" style="rounded=0;whiteSpace=wrap;html=1;fillColor=#60a917;fontColor=#FFFFFF;strokeColor=#2D7600;" vertex="1" parent="8">
                    <mxGeometry x="220" y="190" width="120" height="30" as="geometry"/>
                </mxCell>
                <mxCell id="14" value="&lt;p class=&quot;p1&quot; style=&quot;margin: 0px ; font-stretch: normal ; font-size: 11px ; line-height: normal ; font-family: &amp;#34;menlo&amp;#34;&quot;&gt;&lt;span class=&quot;s1&quot;&gt;store-simulator&lt;/span&gt;&lt;/p&gt;" style="rounded=0;whiteSpace=wrap;html=1;fillColor=#60a917;fontColor=#FFFFFF;strokeColor=#2D7600;" vertex="1" parent="8">
                    <mxGeometry x="20" y="210" width="120" height="30" as="geometry"/>
                </mxCell>
                <mxCell id="15" value="EventStreams-ui" style="rounded=0;whiteSpace=wrap;html=1;fillColor=#0050ef;fontColor=#ffffff;strokeColor=#001DBC;" vertex="1" parent="8">
                    <mxGeometry x="160" y="40" width="120" height="30" as="geometry"/>
                </mxCell>
                <mxCell id="16" value="EventStreams-schema registry" style="rounded=0;whiteSpace=wrap;html=1;fillColor=#0050ef;fontColor=#ffffff;strokeColor=#001DBC;" vertex="1" parent="8">
                    <mxGeometry x="160" y="85" width="120" height="30" as="geometry"/>
                </mxCell>
            </root>
        </mxGraphModel>
    </diagram>
</mxfile>